<?plantuml 1.2026.2?><svg xmlns="http://www.w3.org/2000/svg" xmlns:xlink="http://www.w3.org/1999/xlink" contentStyleType="text/css" data-diagram-type="STATE" height="480px" preserveAspectRatio="none" style="width:296px;height:480px;background:#FFFFFF;" version="1.1" viewBox="0 0 296 480" width="296px" zoomAndPan="magnify"><defs/><g><g class="start_entity" data-qualified-name=".start." data-source-line="7" id="ent0002"><ellipse cx="143.17" cy="16" fill="#222222" rx="10" ry="10" style="stroke:#222222;stroke-width:1;"/></g><g class="entity" data-qualified-name="ParsingOperation" id="ent0003"><rect fill="#F1F1F1" height="50" rx="12.5" ry="12.5" style="stroke:#181818;stroke-width:0.5;" width="129.0831" x="78.63" y="87"/><line style="stroke:#181818;stroke-width:0.5;" x1="78.63" x2="207.7131" y1="112.6" y2="112.6"/><text fill="#000000" font-family="sans-serif" font-size="13" font-weight="bold" lengthAdjust="spacing" textLength="109.0831" x="88.63" y="104.077">ParsingOperation</text></g><g class="entity" data-qualified-name="Calculating" id="ent0005"><rect fill="#F1F1F1" height="50" rx="12.5" ry="12.5" style="stroke:#181818;stroke-width:0.5;" width="90.0701" x="38.14" y="214"/><line style="stroke:#181818;stroke-width:0.5;" x1="38.14" x2="128.2101" y1="239.6" y2="239.6"/><text fill="#000000" font-family="sans-serif" font-size="13" font-weight="bold" lengthAdjust="spacing" textLength="70.0701" x="48.14" y="231.077">Calculating</text></g><g class="entity" data-qualified-name="ErrorShown" id="ent0007"><rect fill="#F1F1F1" height="50" rx="12.5" ry="12.5" style="stroke:#181818;stroke-width:0.5;" width="94.3991" x="143.97" y="341"/><line style="stroke:#181818;stroke-width:0.5;" x1="143.97" x2="238.3691" y1="366.6" y2="366.6"/><text fill="#000000" font-family="sans-serif" font-size="13" font-weight="bold" lengthAdjust="spacing" textLength="74.3991" x="153.97" y="358.077">ErrorShown</text></g><g class="entity" data-qualified-name="ResultShown" id="ent0009"><rect fill="#F1F1F1" height="50" rx="12.5" ry="12.5" style="stroke:#181818;stroke-width:0.5;" width="102.3421" x="7" y="341"/><line style="stroke:#181818;stroke-width:0.5;" x1="7" x2="109.3421" y1="366.6" y2="366.6"/><text fill="#000000" font-family="sans-serif" font-size="13" font-weight="bold" lengthAdjust="spacing" textLength="82.3421" x="17" y="358.077">ResultShown</text></g><g class="end_entity" data-qualified-name=".end." data-source-line="15" id="ent0012"><ellipse cx="124.17" cy="463" fill="none" rx="11" ry="11" style="stroke:#222222;stroke-width:1;"/><ellipse cx="124.17" cy="463" fill="#222222" rx="6" ry="6" style="stroke:#222222;stroke-width:1;"/></g><!--link *start* to ParsingOperation--><g class="link" data-entity-1="ent0002" data-entity-2="ent0003" data-link-type="dependency" data-source-line="7" id="lnk4"><path d="M143.17,26.36 C143.17,40.29 143.17,60.95 143.17,80.65" fill="none" id="*start*-to-ParsingOperation" style="stroke:#181818;stroke-width:1;"/><polygon fill="#181818" points="143.17,86.65,147.17,77.65,143.17,81.65,139.17,77.65,143.17,86.65" style="stroke:#181818;stroke-width:1;"/></g><!--link ParsingOperation to Calculating--><g class="link" data-entity-1="ent0003" data-entity-2="ent0005" data-link-type="dependency" data-source-line="9" id="lnk6"><path d="M109.06,137.31 C100,145.62 91.31,155.71 86.17,167 C79.58,181.48 78.4724,193.4125 79.3924,207.6225" fill="none" id="ParsingOperation-to-Calculating" style="stroke:#181818;stroke-width:1;"/><polygon fill="#181818" points="79.78,213.61,83.1902,204.3704,79.457,208.6204,75.2069,204.8872,79.78,213.61" style="stroke:#181818;stroke-width:1;"/><text fill="#000000" font-family="sans-serif" font-size="13" lengthAdjust="spacing" textLength="84.5391" x="87.17" y="180.077">operation valid</text></g><!--link ParsingOperation to ErrorShown--><g class="link" data-entity-1="ent0003" data-entity-2="ent0007" data-link-type="dependency" data-source-line="10" id="lnk8"><path d="M161.41,137.34 C167.14,146.23 172.83,156.65 176.17,167 C195.54,227.04 195.1866,296.4278 193.2366,334.5378" fill="none" id="ParsingOperation-to-ErrorShown" style="stroke:#181818;stroke-width:1;"/><polygon fill="#181818" points="192.93,340.53,197.3847,331.7462,193.1855,335.5365,189.3951,331.3374,192.93,340.53" style="stroke:#181818;stroke-width:1;"/><text fill="#000000" font-family="sans-serif" font-size="13" lengthAdjust="spacing" textLength="94.6531" x="193.52" y="243.577">operation invalid</text></g><!--link Calculating to ResultShown--><g class="link" data-entity-1="ent0005" data-entity-2="ent0009" data-link-type="dependency" data-source-line="12" id="lnk10"><path d="M67.44,264.29 C62.49,273.26 57.67,283.74 55.17,294 C51.46,309.22 51.4565,320.8626 53.1165,334.7226" fill="none" id="Calculating-to-ResultShown" style="stroke:#181818;stroke-width:1;"/><polygon fill="#181818" points="53.83,340.68,56.7313,331.2682,53.2354,335.7155,48.7881,332.2195,53.83,340.68" style="stroke:#181818;stroke-width:1;"/><text fill="#000000" font-family="sans-serif" font-size="13" lengthAdjust="spacing" textLength="46.956" x="56.17" y="307.077">success</text></g><!--link Calculating to ErrorShown--><g class="link" data-entity-1="ent0005" data-entity-2="ent0007" data-link-type="dependency" data-source-line="13" id="lnk11"><path d="M103.57,264.44 C115.11,278.19 129.85,295.63 143.17,311 C151.63,320.76 157.0666,326.932 165.3066,336.172" fill="none" id="Calculating-to-ErrorShown" style="stroke:#181818;stroke-width:1;"/><polygon fill="#181818" points="169.3,340.65,166.2953,331.2707,165.9722,336.9183,160.3245,336.5952,169.3,340.65" style="stroke:#181818;stroke-width:1;"/><text fill="#000000" font-family="sans-serif" font-size="13" lengthAdjust="spacing" textLength="27.4431" x="144.17" y="307.077">error</text></g><!--link ResultShown to *end*--><g class="link" data-entity-1="ent0009" data-entity-2="ent0012" data-link-type="dependency" data-source-line="15" id="lnk13"><path d="M75.17,391.46 C89.38,411.92 105.3882,434.9514 114.9482,448.7214" fill="none" id="ResultShown-to-*end*" style="stroke:#181818;stroke-width:1;"/><polygon fill="#181818" points="118.37,453.65,116.5231,443.9759,115.5185,449.5428,109.9516,448.5382,118.37,453.65" style="stroke:#181818;stroke-width:1;"/></g><!--link ErrorShown to *end*--><g class="link" data-entity-1="ent0007" data-entity-2="ent0012" data-link-type="dependency" data-source-line="16" id="lnk14"><path d="M173.92,391.46 C159.49,411.92 143.2277,434.9765 133.5177,448.7465" fill="none" id="ErrorShown-to-*end*" style="stroke:#181818;stroke-width:1;"/><polygon fill="#181818" points="130.06,453.65,138.5156,448.5999,132.9414,449.5638,131.9776,443.9896,130.06,453.65" style="stroke:#181818;stroke-width:1;"/></g><?plantuml-src RO-n3i8m34HtVuLdf0w8ZO45mGgY8s8mgIaH8QuI5mHVJzggLGkCT_UU9SURzHK5kcF15wgTRiLhRj-CymN4OOnAoksaByTu5bS0g5IeaeAg9Dy6Dch50nnd9yoo5UufHElBNSM1kkMxQR4rELExb7s9IvHXUv2pnNzb4uA4_2fFFp6ixnmOdspu0yVqMo_4sXYEyOUQNEKc08pDXac_mOZhgmy0?></g></svg>