<?plantuml 1.2026.2?><svg xmlns="http://www.w3.org/2000/svg" xmlns:xlink="http://www.w3.org/1999/xlink" contentStyleType="text/css" data-diagram-type="STATE" height="651px" preserveAspectRatio="none" style="width:745px;height:651px;background:#FFFFFF;" version="1.1" viewBox="0 0 745 651" width="745px" zoomAndPan="magnify"><defs/><g><g class="start_entity" data-qualified-name=".start." data-source-line="7" id="ent0002"><ellipse cx="605.7" cy="16" fill="#222222" rx="10" ry="10" style="stroke:#222222;stroke-width:1;"/></g><g class="entity" data-qualified-name="Menu" id="ent0003"><rect fill="#F1F1F1" height="50" rx="12.5" ry="12.5" style="stroke:#181818;stroke-width:0.5;" width="53.943" x="578.73" y="87"/><line style="stroke:#181818;stroke-width:0.5;" x1="578.73" x2="632.673" y1="112.6" y2="112.6"/><text fill="#000000" font-family="sans-serif" font-size="13" font-weight="bold" lengthAdjust="spacing" textLength="33.943" x="588.73" y="104.077">Menu</text></g><g class="entity" data-qualified-name="FirstOperand" id="ent0005"><rect fill="#F1F1F1" height="50" rx="12.5" ry="12.5" style="stroke:#181818;stroke-width:0.5;" width="101.6271" x="102.88" y="214"/><line style="stroke:#181818;stroke-width:0.5;" x1="102.88" x2="204.5071" y1="239.6" y2="239.6"/><text fill="#000000" font-family="sans-serif" font-size="13" font-weight="bold" lengthAdjust="spacing" textLength="81.6271" x="112.88" y="231.077">FirstOperand</text></g><g class="entity" data-qualified-name="Feedback" id="ent0007"><rect fill="#F1F1F1" height="50" rx="12.5" ry="12.5" style="stroke:#181818;stroke-width:0.5;" width="79.9691" x="279.71" y="595"/><line style="stroke:#181818;stroke-width:0.5;" x1="279.71" x2="359.6791" y1="620.6" y2="620.6"/><text fill="#000000" font-family="sans-serif" font-size="13" font-weight="bold" lengthAdjust="spacing" textLength="59.9691" x="289.71" y="612.077">Feedback</text></g><g class="end_entity" data-qualified-name=".end." data-source-line="12" id="ent0010"><ellipse cx="669.7" cy="239" fill="none" rx="11" ry="11" style="stroke:#222222;stroke-width:1;"/><ellipse cx="669.7" cy="239" fill="#222222" rx="6" ry="6" style="stroke:#222222;stroke-width:1;"/></g><g class="entity" data-qualified-name="SecondOperand" id="ent0012"><rect fill="#F1F1F1" height="50" rx="12.5" ry="12.5" style="stroke:#181818;stroke-width:0.5;" width="120.4121" x="93.49" y="341"/><line style="stroke:#181818;stroke-width:0.5;" x1="93.49" x2="213.9021" y1="366.6" y2="366.6"/><text fill="#000000" font-family="sans-serif" font-size="13" font-weight="bold" lengthAdjust="spacing" textLength="100.4121" x="103.49" y="358.077">SecondOperand</text></g><g class="entity" data-qualified-name="Calculating" id="ent0015"><rect fill="#F1F1F1" height="50" rx="12.5" ry="12.5" style="stroke:#181818;stroke-width:0.5;" width="90.0701" x="217.66" y="468"/><line style="stroke:#181818;stroke-width:0.5;" x1="217.66" x2="307.7301" y1="493.6" y2="493.6"/><text fill="#000000" font-family="sans-serif" font-size="13" font-weight="bold" lengthAdjust="spacing" textLength="70.0701" x="227.66" y="485.077">Calculating</text></g><!--link *start* to Menu--><g class="link" data-entity-1="ent0002" data-entity-2="ent0003" data-link-type="dependency" data-source-line="7" id="lnk4"><path d="M605.7,26.36 C605.7,40.29 605.7,60.95 605.7,80.65" fill="none" id="*start*-to-Menu" style="stroke:#181818;stroke-width:1;"/><polygon fill="#181818" points="605.7,86.65,609.7,77.65,605.7,81.65,601.7,77.65,605.7,86.65" style="stroke:#181818;stroke-width:1;"/></g><!--link Menu to FirstOperand--><g class="link" data-entity-1="ent0003" data-entity-2="ent0005" data-link-type="dependency" data-source-line="9" id="lnk6"><path d="M578.63,115.68 C525.9,121.39 406.15,136.76 309.7,167 C271.22,179.06 235.127,195.5478 204.637,210.9278" fill="none" id="Menu-to-FirstOperand" style="stroke:#181818;stroke-width:1;"/><polygon fill="#181818" points="199.28,213.63,209.1171,213.148,203.7442,211.3781,205.5141,206.0053,199.28,213.63" style="stroke:#181818;stroke-width:1;"/><text fill="#000000" font-family="sans-serif" font-size="13" lengthAdjust="spacing" textLength="106.2231" x="310.7" y="180.077">operation selected</text></g><!--link Menu to Feedback--><g class="link" data-entity-1="ent0003" data-entity-2="ent0007" data-link-type="dependency" data-source-line="10" id="lnk8"><path d="M578.58,120.29 C532.46,134.53 443.7,170.68 443.7,238 C443.7,238 443.7,238 443.7,494 C443.7,542.45 401.3698,575.8438 365.1698,596.5238" fill="none" id="Menu-to-Feedback" style="stroke:#181818;stroke-width:1;"/><polygon fill="#181818" points="359.96,599.5,369.7589,598.5089,364.3015,597.0198,365.7906,591.5625,359.96,599.5" style="stroke:#181818;stroke-width:1;"/><text fill="#000000" font-family="sans-serif" font-size="13" lengthAdjust="spacing" textLength="90.3111" x="444.7" y="370.577">history selected</text></g><!--link Menu to Feedback--><g class="link" data-entity-1="ent0003" data-entity-2="ent0007" data-link-type="dependency" data-source-line="11" id="lnk9"><path d="M605.7,137.43 C605.7,162.63 605.7,203.06 605.7,238 C605.7,238 605.7,238 605.7,494 C605.7,599.94 444.8978,616.8072 366.0678,618.9472" fill="none" id="Menu-to-Feedback-1" style="stroke:#181818;stroke-width:1;"/><polygon fill="#181818" points="360.07,619.11,369.1752,622.8643,365.0682,618.9743,368.9581,614.8672,360.07,619.11" style="stroke:#181818;stroke-width:1;"/><text fill="#000000" font-family="sans-serif" font-size="13" lengthAdjust="spacing" textLength="78.0261" x="606.7" y="370.577">invalid choice</text></g><!--link Feedback to Menu--><g class="link" data-entity-1="ent0007" data-entity-2="ent0003" data-link-type="dependency" data-source-line="22" id="lnk20"><path d="M359.87,615.65 C464.75,605.8 738.7,572.57 738.7,494 C738.7,238 738.7,238 738.7,238 C738.7,180.49 677.3009,144.1756 638.3909,126.4656" fill="none" id="Feedback-to-Menu" style="stroke:#181818;stroke-width:1;"/><polygon fill="#181818" points="632.93,123.98,639.4644,131.349,637.4808,126.0513,642.7785,124.0677,632.93,123.98" style="stroke:#181818;stroke-width:1;"/></g><!--link Menu to *end*--><g class="link" data-entity-1="ent0003" data-entity-2="ent0010" data-link-type="dependency" data-source-line="12" id="lnk11"><path d="M618.19,137.4 C632.45,165.25 652.3356,204.0793 662.1556,223.2593" fill="none" id="Menu-to-*end*" style="stroke:#181818;stroke-width:1;"/><polygon fill="#181818" points="664.89,228.6,664.3489,218.766,662.6113,224.1494,657.2279,222.4119,664.89,228.6" style="stroke:#181818;stroke-width:1;"/><text fill="#000000" font-family="sans-serif" font-size="13" lengthAdjust="spacing" textLength="20.228" x="642.53" y="180.077">exit</text></g><!--link FirstOperand to SecondOperand--><g class="link" data-entity-1="ent0005" data-entity-2="ent0012" data-link-type="dependency" data-source-line="14" id="lnk13"><path d="M153.7,264.4 C153.7,286.42 153.7,312.66 153.7,334.66" fill="none" id="FirstOperand-to-SecondOperand" style="stroke:#181818;stroke-width:1;"/><polygon fill="#181818" points="153.7,340.66,157.7,331.66,153.7,335.66,149.7,331.66,153.7,340.66" style="stroke:#181818;stroke-width:1;"/><text fill="#000000" font-family="sans-serif" font-size="13" lengthAdjust="spacing" textLength="74.4121" x="154.7" y="307.077">valid number</text></g><!--link FirstOperand to Feedback--><g class="link" data-entity-1="ent0005" data-entity-2="ent0007" data-link-type="dependency" data-source-line="15" id="lnk14"><path d="M120.08,264.37 C75.82,299.71 6,368.58 27.7,438 C48.19,503.54 59.48,525.56 115.7,565 C165.18,599.72 229.6503,611.518 273.4803,615.938" fill="none" id="FirstOperand-to-Feedback" style="stroke:#181818;stroke-width:1;"/><polygon fill="#181818" points="279.45,616.54,270.8968,611.6572,274.4752,616.0383,270.0941,619.6168,279.45,616.54" style="stroke:#181818;stroke-width:1;"/><text fill="#000000" font-family="sans-serif" font-size="13" lengthAdjust="spacing" textLength="84.5261" x="28.7" y="434.077">invalid number</text></g><!--link SecondOperand to Calculating--><g class="link" data-entity-1="ent0012" data-entity-2="ent0015" data-link-type="dependency" data-source-line="17" id="lnk16"><path d="M174.97,391.4 C194.18,413.42 218.346,441.1384 237.536,463.1384" fill="none" id="SecondOperand-to-Calculating" style="stroke:#181818;stroke-width:1;"/><polygon fill="#181818" points="241.48,467.66,238.5783,458.2483,238.1933,463.892,232.5496,463.507,241.48,467.66" style="stroke:#181818;stroke-width:1;"/><text fill="#000000" font-family="sans-serif" font-size="13" lengthAdjust="spacing" textLength="74.4121" x="215.72" y="434.077">valid number</text></g><!--link SecondOperand to Feedback--><g class="link" data-entity-1="ent0012" data-entity-2="ent0007" data-link-type="dependency" data-source-line="18" id="lnk17"><path d="M141.14,391.12 C131.48,411.11 118.93,440.58 113.7,468 C105.31,511.96 105.65,537.17 140.7,565 C181.11,597.1 234.4342,609.3456 273.5342,614.6356" fill="none" id="SecondOperand-to-Feedback" style="stroke:#181818;stroke-width:1;"/><polygon fill="#181818" points="279.48,615.44,271.0975,610.2695,274.5251,614.7696,270.025,618.1972,279.48,615.44" style="stroke:#181818;stroke-width:1;"/><text fill="#000000" font-family="sans-serif" font-size="13" lengthAdjust="spacing" textLength="84.5261" x="114.7" y="497.577">invalid number</text></g><!--link Calculating to Feedback--><g class="link" data-entity-1="ent0015" data-entity-2="ent0007" data-link-type="dependency" data-source-line="20" id="lnk18"><path d="M217.19,510.45 C190.04,521.28 159.4,535.69 151.7,548 C147.69,554.41 147.25,558.89 151.7,565 C180.75,604.86 233.7242,615.5275 273.4842,618.2675" fill="none" id="Calculating-to-Feedback" style="stroke:#181818;stroke-width:1;"/><polygon fill="#181818" points="279.47,618.68,270.7663,614.0707,274.4818,618.3362,270.2163,622.0518,279.47,618.68" style="stroke:#181818;stroke-width:1;"/><text fill="#000000" font-family="sans-serif" font-size="13" lengthAdjust="spacing" textLength="123.5391" x="152.7" y="561.077">success / show result</text></g><!--link Calculating to Feedback--><g class="link" data-entity-1="ent0015" data-entity-2="ent0007" data-link-type="dependency" data-source-line="21" id="lnk19"><path d="M273.82,518.4 C283.87,540.42 296.081,567.2006 306.111,589.2006" fill="none" id="Calculating-to-Feedback-1" style="stroke:#181818;stroke-width:1;"/><polygon fill="#181818" points="308.6,594.66,308.5061,584.8116,306.5258,590.1105,301.2269,588.1302,308.6,594.66" style="stroke:#181818;stroke-width:1;"/><text fill="#000000" font-family="sans-serif" font-size="13" lengthAdjust="spacing" textLength="99.6841" x="295.61" y="561.077">error / show error</text></g><?plantuml-src VP4_JmCn3CLtVmhFI1L2R1sw87L331rHXrnYkAXfVB8TQFdq90TS_w5RebZlzvvjMNSn3qxS7WEzkP9ipTasyOlmuH5q4jMSqIZPCH5sd0A0yO36jJ3Zwez2tY9dWDUxBIuMAtocN03QEvRhA6el0udB0PV8xTSCg9IgbS8PIXGwvtSLwwCQot4UYld3fHZGznmzdP0soHBf40tWedqJD-GvXzD0Fn6vx3kIM_gVRhyeN0Or-CabNrBTBhzV1z_2CyddELUe5kz95UzHU_v48QtNcpEG2CiVFXOmgTErlW40?></g></svg>