<?plantuml 1.2026.2?><svg xmlns="http://www.w3.org/2000/svg" xmlns:xlink="http://www.w3.org/1999/xlink" contentStyleType="text/css" data-diagram-type="DESCRIPTION" height="688px" preserveAspectRatio="none" style="width:839px;height:688px;background:#FFFFFF;" version="1.1" viewBox="0 0 839 688" width="839px" zoomAndPan="magnify"><defs/><g><!--cluster GitHub Workflow Manager--><g class="cluster" data-qualified-name="GitHub Workflow Manager" data-source-line="7" id="ent0003"><rect fill="none" height="675" rx="2.5" ry="2.5" style="stroke:#181818;stroke-width:1;" width="750.83" x="82.55" y="7"/><text fill="#000000" font-family="sans-serif" font-size="14" font-weight="bold" lengthAdjust="spacing" textLength="175.0133" x="370.4583" y="22.0059">GitHub Workflow Manager</text></g><!--cluster Interactive Mode--><g class="cluster" data-qualified-name="GitHub Workflow Manager.Interactive Mode" data-source-line="9" id="ent0004"><rect fill="none" height="346" rx="2.5" ry="2.5" style="stroke:#181818;stroke-width:1;" width="692.8" x="116.58" y="50"/><text fill="#000000" font-family="sans-serif" font-size="14" font-weight="bold" lengthAdjust="spacing" textLength="110.4736" x="407.7432" y="65.0059">Interactive Mode</text></g><!--cluster Command-line Mode--><g class="cluster" data-qualified-name="GitHub Workflow Manager.Command-line Mode" data-source-line="23" id="ent0014"><rect fill="none" height="238" rx="2.5" ry="2.5" style="stroke:#181818;stroke-width:1;" width="702.83" x="106.55" y="420"/><text fill="#000000" font-family="sans-serif" font-size="14" font-weight="bold" lengthAdjust="spacing" textLength="137.6755" x="389.1273" y="435.0059">Command-line Mode</text></g><!--entity UI--><g class="entity" data-qualified-name="GitHub Workflow Manager.Interactive Mode.UI" data-source-line="10" id="ent0005"><ellipse cx="222.6387" cy="231.0017" fill="#F1F1F1" rx="90.0587" ry="20.4117" style="stroke:#181818;stroke-width:0.5;"/><text fill="#000000" font-family="sans-serif" font-size="14" lengthAdjust="spacing" textLength="152.5154" x="146.381" y="235.9017">Launch interactive menu</text></g><!--entity I_ADD--><g class="entity" data-qualified-name="GitHub Workflow Manager.Interactive Mode.I_ADD" data-source-line="12" id="ent0006"><ellipse cx="454.8903" cy="363.0021" fill="#F1F1F1" rx="71.1603" ry="16.6321" style="stroke:#181818;stroke-width:0.5;"/><text fill="#000000" font-family="sans-serif" font-size="14" lengthAdjust="spacing" textLength="107.3656" x="401.2075" y="367.902">Add workflow run</text></g><!--entity I_LIST--><g class="entity" data-qualified-name="GitHub Workflow Manager.Interactive Mode.I_LIST" data-source-line="13" id="ent0007"><ellipse cx="454.8915" cy="295.9993" fill="#F1F1F1" rx="53.0615" ry="14.8793" style="stroke:#181818;stroke-width:0.5;"/><text fill="#000000" font-family="sans-serif" font-size="14" lengthAdjust="spacing" textLength="70.7977" x="419.4927" y="300.8993">List all runs</text></g><!--entity I_DETAIL--><g class="entity" data-qualified-name="GitHub Workflow Manager.Interactive Mode.I_DETAIL" data-source-line="14" id="ent0008"><ellipse cx="454.8916" cy="231.0023" fill="#F1F1F1" rx="62.4116" ry="14.8823" style="stroke:#181818;stroke-width:0.5;"/><text fill="#000000" font-family="sans-serif" font-size="14" lengthAdjust="spacing" textLength="84.0416" x="412.8707" y="235.9023">Get run detail</text></g><!--entity I_FILTER--><g class="entity" data-qualified-name="GitHub Workflow Manager.Interactive Mode.I_FILTER" data-source-line="15" id="ent0009"><ellipse cx="454.8931" cy="165.9993" fill="#F1F1F1" rx="47.0031" ry="14.8793" style="stroke:#181818;stroke-width:0.5;"/><text fill="#000000" font-family="sans-serif" font-size="14" lengthAdjust="spacing" textLength="62.2298" x="423.7782" y="170.8993">Filter runs</text></g><!--entity I_EXIT--><g class="entity" data-qualified-name="GitHub Workflow Manager.Interactive Mode.I_EXIT" data-source-line="16" id="ent0010"><ellipse cx="454.8874" cy="100.9975" fill="#F1F1F1" rx="66.0874" ry="15.6175" style="stroke:#181818;stroke-width:0.5;"/><text fill="#000000" font-family="sans-serif" font-size="14" lengthAdjust="spacing" textLength="94.1496" x="407.8126" y="105.8974">Exit application</text></g><!--entity I_FBRANCH--><g class="entity" data-qualified-name="GitHub Workflow Manager.Interactive Mode.I_FBRANCH" data-source-line="18" id="ent0011"><ellipse cx="717.2092" cy="254.0018" fill="#F1F1F1" rx="66.9592" ry="15.7918" style="stroke:#181818;stroke-width:0.5;"/><text fill="#000000" font-family="sans-serif" font-size="14" lengthAdjust="spacing" textLength="96.4736" x="668.9724" y="258.9018">Filter by branch</text></g><!--entity I_FSTATUS--><g class="entity" data-qualified-name="GitHub Workflow Manager.Interactive Mode.I_FSTATUS" data-source-line="19" id="ent0012"><ellipse cx="717.2113" cy="179.9963" fill="#F1F1F1" rx="64.9313" ry="15.3863" style="stroke:#181818;stroke-width:0.5;"/><text fill="#000000" font-family="sans-serif" font-size="14" lengthAdjust="spacing" textLength="91.0276" x="671.6975" y="184.8962">Filter by status</text></g><!--entity I_FCONCL--><g class="entity" data-qualified-name="GitHub Workflow Manager.Interactive Mode.I_FCONCL" data-source-line="20" id="ent0013"><ellipse cx="717.212" cy="108.0024" fill="#F1F1F1" rx="76.162" ry="17.6324" style="stroke:#181818;stroke-width:0.5;"/><text fill="#000000" font-family="sans-serif" font-size="14" lengthAdjust="spacing" textLength="119.8115" x="657.3063" y="112.9024">Filter by conclusion</text></g><!--entity CLI--><g class="entity" data-qualified-name="GitHub Workflow Manager.Command-line Mode.CLI" data-source-line="24" id="ent0015"><ellipse cx="222.6391" cy="535.9978" fill="#F1F1F1" rx="100.0891" ry="22.4178" style="stroke:#181818;stroke-width:0.5;"/><text fill="#000000" font-family="sans-serif" font-size="14" lengthAdjust="spacing" textLength="175.0693" x="135.1045" y="540.8978">Run one-shot CLI command</text></g><!--entity C_ADD--><g class="entity" data-qualified-name="GitHub Workflow Manager.Command-line Mode.C_ADD" data-source-line="26" id="ent0016"><ellipse cx="454.8903" cy="603.0021" fill="#F1F1F1" rx="71.1603" ry="16.6321" style="stroke:#181818;stroke-width:0.5;"/><text fill="#000000" font-family="sans-serif" font-size="14" lengthAdjust="spacing" textLength="107.3656" x="401.2075" y="607.902">Add workflow run</text></g><!--entity C_LIST--><g class="entity" data-qualified-name="GitHub Workflow Manager.Command-line Mode.C_LIST" data-source-line="27" id="ent0017"><ellipse cx="454.89" cy="535.9993" fill="#F1F1F1" rx="40.41" ry="14.8793" style="stroke:#181818;stroke-width:0.5;"/><text fill="#000000" font-family="sans-serif" font-size="14" lengthAdjust="spacing" textLength="52.9058" x="428.4371" y="540.8993">List runs</text></g><!--entity C_DETAIL--><g class="entity" data-qualified-name="GitHub Workflow Manager.Command-line Mode.C_DETAIL" data-source-line="28" id="ent0018"><ellipse cx="454.8916" cy="471.0023" fill="#F1F1F1" rx="62.4116" ry="14.8823" style="stroke:#181818;stroke-width:0.5;"/><text fill="#000000" font-family="sans-serif" font-size="14" lengthAdjust="spacing" textLength="84.0416" x="412.8707" y="475.9023">Get run detail</text></g><!--entity C_FBRANCH--><g class="entity" data-qualified-name="GitHub Workflow Manager.Command-line Mode.C_FBRANCH" data-source-line="30" id="ent0019"><ellipse cx="717.2092" cy="617.0018" fill="#F1F1F1" rx="66.9592" ry="15.7918" style="stroke:#181818;stroke-width:0.5;"/><text fill="#000000" font-family="sans-serif" font-size="14" lengthAdjust="spacing" textLength="96.4736" x="668.9724" y="621.9018">Filter by branch</text></g><!--entity C_FSTATUS--><g class="entity" data-qualified-name="GitHub Workflow Manager.Command-line Mode.C_FSTATUS" data-source-line="31" id="ent0020"><ellipse cx="717.2113" cy="545.9963" fill="#F1F1F1" rx="64.9313" ry="15.3863" style="stroke:#181818;stroke-width:0.5;"/><text fill="#000000" font-family="sans-serif" font-size="14" lengthAdjust="spacing" textLength="91.0276" x="671.6975" y="550.8962">Filter by status</text></g><!--entity C_FCONCL--><g class="entity" data-qualified-name="GitHub Workflow Manager.Command-line Mode.C_FCONCL" data-source-line="32" id="ent0021"><ellipse cx="717.212" cy="476.0024" fill="#F1F1F1" rx="76.162" ry="17.6324" style="stroke:#181818;stroke-width:0.5;"/><text fill="#000000" font-family="sans-serif" font-size="14" lengthAdjust="spacing" textLength="119.8115" x="657.3063" y="480.9024">Filter by conclusion</text></g><!--entity User--><g class="entity" data-qualified-name="User" data-source-line="5" id="ent0002"><ellipse cx="20.7769" cy="354.1" fill="#F1F1F1" rx="8" ry="8" style="stroke:#181818;stroke-width:0.5;"/><path d="M20.7769,362.1 L20.7769,389.1 M7.7769,370.1 L33.7769,370.1 M20.7769,389.1 L7.7769,404.1 M20.7769,389.1 L33.7769,404.1" fill="none" style="stroke:#181818;stroke-width:0.5;"/><text fill="#000000" font-family="sans-serif" font-size="14" lengthAdjust="spacing" textLength="29.5539" x="6" y="418.6059">User</text></g><!--link User to UI--><g class="link" data-entity-1="ent0002" data-entity-2="ent0005" data-link-type="dependency" data-source-line="36" id="lnk22"><path d="M35.83,373.24 C69.06,347.8 148.1252,287.2765 190.9052,254.5365" fill="none" id="User-to-UI" style="stroke:#181818;stroke-width:1;"/><polygon fill="#181818" points="195.67,250.89,186.0919,253.1833,191.6994,253.9288,190.9539,259.5363,195.67,250.89" style="stroke:#181818;stroke-width:1;"/></g><!--link User to CLI--><g class="link" data-entity-1="ent0002" data-entity-2="ent0015" data-link-type="dependency" data-source-line="37" id="lnk23"><path d="M35.83,394.69 C68.35,419.42 144.5541,477.3681 188.0941,510.4781" fill="none" id="User-to-CLI" style="stroke:#181818;stroke-width:1;"/><polygon fill="#181818" points="192.87,514.11,188.1273,505.4782,188.8901,511.0834,183.2849,511.8462,192.87,514.11" style="stroke:#181818;stroke-width:1;"/></g><!--link UI to I_ADD--><!--link UI to I_ADD--><g class="link" data-entity-1="ent0005" data-entity-2="ent0006" data-link-type="dependency" data-source-line="58" id="lnk38"><path d="M274.21,247.94 C305.4,265.03 346.45,289.95 383.73,310.5 C404.71,322.06 425.5189,330.2913 439.2789,342.4813" fill="none" id="UI-to-I_ADD-1" style="stroke:#181818;stroke-width:1;"/><polygon fill="#181818" points="443.77,346.46,439.6858,337.4979,440.0274,343.1444,434.3809,343.4861,443.77,346.46" style="stroke:#181818;stroke-width:1;"/></g><!--link UI to I_LIST--><!--link UI to I_LIST--><g class="link" data-entity-1="ent0005" data-entity-2="ent0007" data-link-type="dependency" data-source-line="59" id="lnk39"><path d="M302.56,240.75 C348.64,252.2 397.8559,266.7387 427.2259,279.6287" fill="none" id="UI-to-I_LIST-1" style="stroke:#181818;stroke-width:1;"/><polygon fill="#181818" points="432.72,282.04,426.0863,274.7603,428.1415,280.0306,422.8712,282.0858,432.72,282.04" style="stroke:#181818;stroke-width:1;"/></g><!--link UI to I_DETAIL--><!--link UI to I_DETAIL--><g class="link" data-entity-1="ent0005" data-entity-2="ent0008" data-link-type="dependency" data-source-line="60" id="lnk40"><path d="M295.86,218.72 C333.05,217.19 371.2401,217.2493 403.4101,219.8893" fill="none" id="UI-to-I_DETAIL-1" style="stroke:#181818;stroke-width:1;"/><polygon fill="#181818" points="409.39,220.38,400.7473,215.6573,404.4068,219.9711,400.093,223.6305,409.39,220.38" style="stroke:#181818;stroke-width:1;"/></g><!--link UI to I_FILTER--><!--link UI to I_FILTER--><g class="link" data-entity-1="ent0005" data-entity-2="ent0009" data-link-type="dependency" data-source-line="61" id="lnk41"><path d="M257.62,211.77 C297.52,196.25 358.0092,178.3402 402.3792,169.3602" fill="none" id="UI-to-I_FILTER-1" style="stroke:#181818;stroke-width:1;"/><polygon fill="#181818" points="408.26,168.17,398.6454,166.0348,403.3594,169.1618,400.2323,173.8758,408.26,168.17" style="stroke:#181818;stroke-width:1;"/></g><!--link UI to I_EXIT--><!--link UI to I_EXIT--><g class="link" data-entity-1="ent0005" data-entity-2="ent0010" data-link-type="dependency" data-source-line="62" id="lnk42"><path d="M239.23,210.46 C267.49,184.98 329.32,145.68 383.73,116.5 C388.36,114.02 387.8051,114.1558 392.6951,111.7758" fill="none" id="UI-to-I_EXIT-1" style="stroke:#181818;stroke-width:1;"/><polygon fill="#181818" points="398.09,109.15,388.2471,109.492,393.5942,111.3381,391.7481,116.6853,398.09,109.15" style="stroke:#181818;stroke-width:1;"/></g><!--link I_FILTER to I_FBRANCH--><!--link I_FBRANCH to I_FILTER--><g class="link" data-entity-1="ent0011" data-entity-2="ent0009" data-link-type="dependency" data-source-line="64" id="lnk43"><path d="M650.14,253.64 C620.04,251.14 584.8,244.8 556.05,230 C539,221.23 541.65,210.15 526.05,199 C513.9,190.31 504.5995,185.3259 491.7295,179.7759" fill="none" id="I_FBRANCH-to-I_FILTER" style="stroke:#181818;stroke-width:1;stroke-dasharray:7,7;"/><polygon fill="#181818" points="486.22,177.4,492.9004,184.6369,490.8113,179.3799,496.0683,177.2908,486.22,177.4" style="stroke:#181818;stroke-width:1;"/><text fill="#000000" font-family="sans-serif" font-size="13" lengthAdjust="spacing" textLength="53.4821" x="557.05" y="226.077">&#171;extend&#187;</text></g><!--link I_FILTER to I_FSTATUS--><!--link I_FSTATUS to I_FILTER--><g class="link" data-entity-1="ent0012" data-entity-2="ent0009" data-link-type="dependency" data-source-line="65" id="lnk44"><path d="M653.5,176.63 C606.64,174.11 549.6713,171.0427 507.5313,168.7727" fill="none" id="I_FSTATUS-to-I_FILTER" style="stroke:#181818;stroke-width:1;stroke-dasharray:7,7;"/><polygon fill="#181818" points="501.54,168.45,510.3118,172.9283,506.5328,168.719,510.7421,164.9399,501.54,168.45" style="stroke:#181818;stroke-width:1;"/><text fill="#000000" font-family="sans-serif" font-size="13" lengthAdjust="spacing" textLength="53.4821" x="557.05" y="167.827">&#171;extend&#187;</text></g><!--link I_FILTER to I_FCONCL--><!--link I_FCONCL to I_FILTER--><g class="link" data-entity-1="ent0013" data-entity-2="ent0009" data-link-type="dependency" data-source-line="66" id="lnk45"><path d="M657.89,119.41 C627.47,125.52 589.69,133.34 556.05,141 C534.73,145.85 516.804,150.2775 497.784,155.1275" fill="none" id="I_FCONCL-to-I_FILTER" style="stroke:#181818;stroke-width:1;stroke-dasharray:7,7;"/><polygon fill="#181818" points="491.97,156.61,501.6793,158.2622,496.815,155.3746,499.7026,150.5102,491.97,156.61" style="stroke:#181818;stroke-width:1;"/><text fill="#000000" font-family="sans-serif" font-size="13" lengthAdjust="spacing" textLength="53.4821" x="557.05" y="125.577">&#171;extend&#187;</text></g><!--link CLI to C_ADD--><!--link CLI to C_ADD--><g class="link" data-entity-1="ent0015" data-entity-2="ent0016" data-link-type="dependency" data-source-line="68" id="lnk46"><path d="M308.4,547.95 C351.1,559.19 394.284,572.369 423.114,584.709" fill="none" id="CLI-to-C_ADD-1" style="stroke:#181818;stroke-width:1;"/><polygon fill="#181818" points="428.63,587.07,421.93,579.8512,424.0334,585.1025,418.7821,587.2058,428.63,587.07" style="stroke:#181818;stroke-width:1;"/></g><!--link CLI to C_LIST--><!--link CLI to C_LIST--><g class="link" data-entity-1="ent0015" data-entity-2="ent0017" data-link-type="dependency" data-source-line="69" id="lnk47"><path d="M306.44,523.35 C346.8,522.14 386.9593,522.5648 416.7093,525.9848" fill="none" id="CLI-to-C_LIST-1" style="stroke:#181818;stroke-width:1;"/><polygon fill="#181818" points="422.67,526.67,414.1857,521.6683,417.7027,526.099,413.2721,529.616,422.67,526.67" style="stroke:#181818;stroke-width:1;"/></g><!--link CLI to C_DETAIL--><!--link CLI to C_DETAIL--><g class="link" data-entity-1="ent0015" data-entity-2="ent0018" data-link-type="dependency" data-source-line="70" id="lnk48"><path d="M262.18,515.03 C298.54,501.31 347.6948,486.5903 389.4748,477.2403" fill="none" id="CLI-to-C_DETAIL-1" style="stroke:#181818;stroke-width:1;"/><polygon fill="#181818" points="395.33,475.93,385.6737,473.9921,390.4507,477.0219,387.4208,481.799,395.33,475.93" style="stroke:#181818;stroke-width:1;"/></g><!--link C_LIST to C_FBRANCH--><!--link C_FBRANCH to C_LIST--><g class="link" data-entity-1="ent0019" data-entity-2="ent0017" data-link-type="dependency" data-source-line="72" id="lnk49"><path d="M650.75,619.35 C620.62,618.05 585.17,613.02 556.05,599 C539.06,590.82 541.48,579.84 526.05,569 C513.17,559.95 502.9215,554.618 489.6115,548.958" fill="none" id="C_FBRANCH-to-C_LIST" style="stroke:#181818;stroke-width:1;stroke-dasharray:7,7;"/><polygon fill="#181818" points="484.09,546.61,490.8069,553.813,488.6913,548.5667,493.9376,546.451,484.09,546.61" style="stroke:#181818;stroke-width:1;"/><text fill="#000000" font-family="sans-serif" font-size="13" lengthAdjust="spacing" textLength="53.4821" x="557.05" y="595.077">&#171;extend&#187;</text></g><!--link C_LIST to C_FSTATUS--><!--link C_FSTATUS to C_LIST--><g class="link" data-entity-1="ent0020" data-entity-2="ent0017" data-link-type="dependency" data-source-line="73" id="lnk50"><path d="M652.71,543.56 C603.61,541.67 543.1756,539.3498 501.4256,537.7498" fill="none" id="C_FSTATUS-to-C_LIST" style="stroke:#181818;stroke-width:1;stroke-dasharray:7,7;"/><polygon fill="#181818" points="495.43,537.52,504.2702,541.8617,500.4263,537.7115,504.5766,533.8676,495.43,537.52" style="stroke:#181818;stroke-width:1;"/><text fill="#000000" font-family="sans-serif" font-size="13" lengthAdjust="spacing" textLength="53.4821" x="557.05" y="536.177">&#171;extend&#187;</text></g><!--link C_LIST to C_FCONCL--><!--link C_FCONCL to C_LIST--><g class="link" data-entity-1="ent0021" data-entity-2="ent0017" data-link-type="dependency" data-source-line="74" id="lnk51"><path d="M659.79,487.91 C629.07,494.5 590.42,502.96 556.05,511 C533.54,516.27 514.0945,521.0896 494.5745,526.0596" fill="none" id="C_FCONCL-to-C_LIST" style="stroke:#181818;stroke-width:1;stroke-dasharray:7,7;"/><polygon fill="#181818" points="488.76,527.54,498.4687,529.1957,493.6054,526.3063,496.4948,521.443,488.76,527.54" style="stroke:#181818;stroke-width:1;"/><text fill="#000000" font-family="sans-serif" font-size="13" lengthAdjust="spacing" textLength="53.4821" x="557.05" y="495.097">&#171;extend&#187;</text></g><?plantuml-src dLHTQzim57tNhxZufK_k3nWbu2b9At0xI1ms66Cejfg8o5AGvBLbxBzFyaTgkROXzLFYUyxLqJdtMh1d2rQ1veUZXO9hbbkk938dBizKqnBED3_H0zlQDy70bway28OGpQtIi3DC8tHv3T4zjm_L7huhVNeMwWKUgNHi7S5VXA1h1X6HbcdNWlzXyAWAvklWdigmd1e7I6abyoFm7gvaiee0g84TGI4wAGfuwOxKbOoWUnoQ_4wMoq5tRYnG8JpMl8CxV4gsMKYuPzPZeM2MSX4D2SjLbf0qfAovSDe_dj1IrYJDLfkGidhbJjRvB7XEVGo3Qwn-a0oD7h9_Wxscph01O_rrappXXocEiTHMPiZPPacssqvnSYLpKPcBkeQ3lprXV_z_GSfObIMLHIoud8XvupnLaiNcg2pWbBZsDINoVTt_QtB64pcF9D3YhymPTpbVaG7-H0Ru4ndWVWOk1R-O4CSBlokNtxMXEmBnpoCl2YP_rMll2isAZ5TgayPBhHtZnNR0nulDA7UWKNfhsoocjMaMqzY2_71zA3SZCr6gBpvHwmQXGOqXElqpY5Rz3ABLVWFzxsNf5Wbe_PqsjRr1W65cmvY6oOHXD9BXzlOT1L_WxewzMYQBnG9TB9_7rB9X1jFO6WOmy7nWSrzRQrZG4GVA9X0zNME8_m00?></g></svg>