<?plantuml 1.2026.2?><svg xmlns="http://www.w3.org/2000/svg" xmlns:xlink="http://www.w3.org/1999/xlink" contentStyleType="text/css" data-diagram-type="STATE" height="397px" preserveAspectRatio="none" style="width:135px;height:397px;background:#FFFFFF;" version="1.1" viewBox="0 0 135 397" width="135px" zoomAndPan="magnify"><defs/><g><g class="start_entity" data-qualified-name=".start." data-source-line="2" id="ent0002"><ellipse cx="67.57" cy="16" fill="#222222" rx="10" ry="10" style="stroke:#222222;stroke-width:1;"/></g><g class="entity" data-qualified-name="PENDING" id="ent0003"><rect fill="#F1F1F1" height="50" rx="12.5" ry="12.5" style="stroke:#181818;stroke-width:0.5;" width="83.7837" x="25.68" y="87"/><line style="stroke:#181818;stroke-width:0.5;" x1="25.68" x2="109.4637" y1="113.7999" y2="113.7999"/><text fill="#000000" font-family="sans-serif" font-size="14" lengthAdjust="spacing" textLength="63.7837" x="35.68" y="105.0059">PENDING</text></g><g class="entity" data-qualified-name="IN_PROGRESS" id="ent0005"><rect fill="#F1F1F1" height="50" rx="12.5" ry="12.5" style="stroke:#181818;stroke-width:0.5;" width="121.1356" x="7" y="214"/><line style="stroke:#181818;stroke-width:0.5;" x1="7" x2="128.1356" y1="240.7999" y2="240.7999"/><text fill="#000000" font-family="sans-serif" font-size="14" lengthAdjust="spacing" textLength="101.1356" x="17" y="232.0059">IN_PROGRESS</text></g><g class="entity" data-qualified-name="DONE" id="ent0007"><rect fill="#F1F1F1" height="50" rx="12.5" ry="12.5" style="stroke:#181818;stroke-width:0.5;" width="60.4458" x="37.34" y="341"/><line style="stroke:#181818;stroke-width:0.5;" x1="37.34" x2="97.7858" y1="367.7999" y2="367.7999"/><text fill="#000000" font-family="sans-serif" font-size="14" lengthAdjust="spacing" textLength="40.4458" x="47.34" y="359.0059">DONE</text></g><!--link *start* to PENDING--><g class="link" data-entity-1="ent0002" data-entity-2="ent0003" data-link-type="dependency" data-source-line="2" id="lnk4"><path d="M67.57,26.36 C67.57,40.29 67.57,60.95 67.57,80.65" fill="none" id="*start*-to-PENDING" style="stroke:#181818;stroke-width:1;"/><polygon fill="#181818" points="67.57,86.65,71.57,77.65,67.57,81.65,63.57,77.65,67.57,86.65" style="stroke:#181818;stroke-width:1;"/></g><!--link PENDING to IN_PROGRESS--><g class="link" data-entity-1="ent0003" data-entity-2="ent0005" data-link-type="dependency" data-source-line="4" id="lnk6"><path d="M67.57,137.4 C67.57,159.42 67.57,185.66 67.57,207.66" fill="none" id="PENDING-to-IN_PROGRESS" style="stroke:#181818;stroke-width:1;"/><polygon fill="#181818" points="67.57,213.66,71.57,204.66,67.57,208.66,63.57,204.66,67.57,213.66" style="stroke:#181818;stroke-width:1;"/><text fill="#000000" font-family="sans-serif" font-size="13" lengthAdjust="spacing" textLength="25.285" x="68.57" y="180.077">start</text></g><!--link IN_PROGRESS to DONE--><g class="link" data-entity-1="ent0005" data-entity-2="ent0007" data-link-type="dependency" data-source-line="5" id="lnk8"><path d="M37.84,264.34 C29.69,272.79 21.9,282.94 17.57,294 C10.58,311.83 18.4501,325.3392 32.5701,338.5592" fill="none" id="IN_PROGRESS-to-DONE" style="stroke:#181818;stroke-width:1;"/><polygon fill="#181818" points="36.95,342.66,33.1139,333.5889,33.3001,339.2427,27.6463,339.4288,36.95,342.66" style="stroke:#181818;stroke-width:1;"/><text fill="#000000" font-family="sans-serif" font-size="13" lengthAdjust="spacing" textLength="52.7411" x="18.57" y="307.077">complete</text></g><!--link DONE to IN_PROGRESS--><g class="link" data-entity-1="ent0007" data-entity-2="ent0005" data-link-type="dependency" data-source-line="6" id="lnk9"><path d="M71.96,340.62 C73.42,331.38 74.85,320.74 75.57,311 C76.72,295.41 75.7724,283.8907 73.5224,270.1907" fill="none" id="DONE-to-IN_PROGRESS" style="stroke:#181818;stroke-width:1;"/><polygon fill="#181818" points="72.55,264.27,70.0614,273.7993,73.3603,269.2039,77.9557,272.5028,72.55,264.27" style="stroke:#181818;stroke-width:1;"/><text fill="#000000" font-family="sans-serif" font-size="13" lengthAdjust="spacing" textLength="40.4691" x="76.91" y="307.077">reopen</text></g><?plantuml-src YzQALT3LjLC8SFLpyVHpv-A2Ci22ddxn0K7-xa6kmS4ALWh59Ob59Lp8OY0rBlv-ha39vFpSWfpKabGkC1zJSr5gVa5g7XS0?></g></svg>