<?plantuml 1.2026.2?><svg xmlns="http://www.w3.org/2000/svg" xmlns:xlink="http://www.w3.org/1999/xlink" contentStyleType="text/css" data-diagram-type="DESCRIPTION" height="1156px" preserveAspectRatio="none" style="width:635px;height:1156px;background:#FFFFFF;" version="1.1" viewBox="0 0 635 1156" width="635px" zoomAndPan="magnify"><defs/><g><!--cluster TODO Manager--><g class="cluster" data-qualified-name="TODO Manager" data-source-line="7" id="ent0003"><rect fill="none" height="1143" rx="2.5" ry="2.5" style="stroke:#181818;stroke-width:1;" width="546.82" x="82.55" y="7"/><text fill="#000000" font-family="sans-serif" font-size="14" font-weight="bold" lengthAdjust="spacing" textLength="101.9056" x="305.0072" y="22.0059">TODO Manager</text></g><!--cluster Interactive mode--><g class="cluster" data-qualified-name="TODO Manager.Interactive mode" data-source-line="9" id="ent0004"><rect fill="none" height="494" rx="2.5" ry="2.5" style="stroke:#181818;stroke-width:1;" width="480.09" x="125.28" y="50"/><text fill="#000000" font-family="sans-serif" font-size="14" font-weight="bold" lengthAdjust="spacing" textLength="111.2576" x="309.6962" y="65.0059">Interactive mode</text></g><!--cluster Command-line mode--><g class="cluster" data-qualified-name="TODO Manager.Command-line mode" data-source-line="21" id="ent0013"><rect fill="none" height="558" rx="2.5" ry="2.5" style="stroke:#181818;stroke-width:1;" width="494.43" x="106.55" y="568"/><text fill="#000000" font-family="sans-serif" font-size="14" font-weight="bold" lengthAdjust="spacing" textLength="138.4595" x="284.5353" y="583.0059">Command-line mode</text></g><!--entity UI--><g class="entity" data-qualified-name="TODO Manager.Interactive mode.UI" data-source-line="10" id="ent0005"><ellipse cx="222.2942" cy="335.0028" fill="#F1F1F1" rx="81.0142" ry="18.6028" style="stroke:#181818;stroke-width:0.5;"/><text fill="#000000" font-family="sans-serif" font-size="14" lengthAdjust="spacing" textLength="131.4874" x="156.5505" y="339.9028">Use interactive menu</text></g><!--entity I_ADD--><g class="entity" data-qualified-name="TODO Manager.Interactive mode.I_ADD" data-source-line="12" id="ent0006"><ellipse cx="513.1988" cy="508.9993" fill="#F1F1F1" rx="41.5188" ry="14.8793" style="stroke:#181818;stroke-width:0.5;"/><text fill="#000000" font-family="sans-serif" font-size="14" lengthAdjust="spacing" textLength="54.4738" x="485.9619" y="513.8993">Add task</text></g><!--entity I_LIST--><g class="entity" data-qualified-name="TODO Manager.Interactive mode.I_LIST" data-source-line="13" id="ent0007"><ellipse cx="513.1991" cy="441.0018" fill="#F1F1F1" rx="66.9591" ry="15.7918" style="stroke:#181818;stroke-width:0.5;"/><text fill="#000000" font-family="sans-serif" font-size="14" lengthAdjust="spacing" textLength="96.4736" x="464.9624" y="445.9018">List / filter tasks</text></g><!--entity I_SHOW--><g class="entity" data-qualified-name="TODO Manager.Interactive mode.I_SHOW" data-source-line="14" id="ent0008"><ellipse cx="513.1995" cy="371.9959" fill="#F1F1F1" rx="71.7795" ry="16.7559" style="stroke:#181818;stroke-width:0.5;"/><text fill="#000000" font-family="sans-serif" font-size="14" lengthAdjust="spacing" textLength="108.9335" x="458.7327" y="376.8959">Show task details</text></g><!--entity I_STATUS--><g class="entity" data-qualified-name="TODO Manager.Interactive mode.I_STATUS" data-source-line="15" id="ent0009"><ellipse cx="513.2035" cy="302.0047" fill="#F1F1F1" rx="76.1735" ry="17.6347" style="stroke:#181818;stroke-width:0.5;"/><text fill="#000000" font-family="sans-serif" font-size="14" lengthAdjust="spacing" textLength="119.8395" x="453.2838" y="306.9047">Change task status</text></g><!--entity I_UPDATE--><g class="entity" data-qualified-name="TODO Manager.Interactive mode.I_UPDATE" data-source-line="16" id="ent0010"><ellipse cx="513.2035" cy="233.9993" fill="#F1F1F1" rx="55.8235" ry="14.8793" style="stroke:#181818;stroke-width:0.5;"/><text fill="#000000" font-family="sans-serif" font-size="14" lengthAdjust="spacing" textLength="74.7037" x="475.8516" y="238.8993">Update task</text></g><!--entity I_DELETE--><g class="entity" data-qualified-name="TODO Manager.Interactive mode.I_DELETE" data-source-line="17" id="ent0011"><ellipse cx="513.1971" cy="168.9993" fill="#F1F1F1" rx="52.5171" ry="14.8793" style="stroke:#181818;stroke-width:0.5;"/><text fill="#000000" font-family="sans-serif" font-size="14" lengthAdjust="spacing" textLength="70.0277" x="478.1832" y="173.8993">Delete task</text></g><!--entity I_QUIT--><g class="entity" data-qualified-name="TODO Manager.Interactive mode.I_QUIT" data-source-line="18" id="ent0012"><ellipse cx="513.2044" cy="103.0029" fill="#F1F1F1" rx="66.9644" ry="15.7929" style="stroke:#181818;stroke-width:0.5;"/><text fill="#000000" font-family="sans-serif" font-size="14" lengthAdjust="spacing" textLength="96.4876" x="464.9606" y="107.9028">Quit application</text></g><!--entity CLI--><g class="entity" data-qualified-name="TODO Manager.Command-line mode.CLI" data-source-line="22" id="ent0014"><ellipse cx="222.2858" cy="852.9972" fill="#F1F1F1" rx="99.7358" ry="22.3472" style="stroke:#181818;stroke-width:0.5;"/><text fill="#000000" font-family="sans-serif" font-size="14" lengthAdjust="spacing" textLength="174.2853" x="135.1432" y="857.8971">Use one-shot CLI command</text></g><!--entity C_ADD--><g class="entity" data-qualified-name="TODO Manager.Command-line mode.C_ADD" data-source-line="24" id="ent0015"><ellipse cx="513.1988" cy="1087.9993" fill="#F1F1F1" rx="41.5188" ry="14.8793" style="stroke:#181818;stroke-width:0.5;"/><text fill="#000000" font-family="sans-serif" font-size="14" lengthAdjust="spacing" textLength="54.4738" x="485.9619" y="1092.8993">Add task</text></g><!--entity C_LIST--><g class="entity" data-qualified-name="TODO Manager.Command-line mode.C_LIST" data-source-line="25" id="ent0016"><ellipse cx="513.1991" cy="1019.0018" fill="#F1F1F1" rx="66.9591" ry="15.7918" style="stroke:#181818;stroke-width:0.5;"/><text fill="#000000" font-family="sans-serif" font-size="14" lengthAdjust="spacing" textLength="96.4736" x="464.9624" y="1023.9018">List / filter tasks</text></g><!--entity C_SHOW--><g class="entity" data-qualified-name="TODO Manager.Command-line mode.C_SHOW" data-source-line="26" id="ent0017"><ellipse cx="513.1995" cy="948.9959" fill="#F1F1F1" rx="71.7795" ry="16.7559" style="stroke:#181818;stroke-width:0.5;"/><text fill="#000000" font-family="sans-serif" font-size="14" lengthAdjust="spacing" textLength="108.9335" x="458.7327" y="953.8959">Show task details</text></g><!--entity C_START--><g class="entity" data-qualified-name="TODO Manager.Command-line mode.C_START" data-source-line="27" id="ent0018"><ellipse cx="513.1953" cy="880.9993" fill="#F1F1F1" rx="44.8153" ry="14.8793" style="stroke:#181818;stroke-width:0.5;"/><text fill="#000000" font-family="sans-serif" font-size="14" lengthAdjust="spacing" textLength="59.1358" x="483.6274" y="885.8993">Start task</text></g><!--entity C_DONE--><g class="entity" data-qualified-name="TODO Manager.Command-line mode.C_DONE" data-source-line="28" id="ent0019"><ellipse cx="513.2026" cy="816.0025" fill="#F1F1F1" rx="64.3626" ry="15.2725" style="stroke:#181818;stroke-width:0.5;"/><text fill="#000000" font-family="sans-serif" font-size="14" lengthAdjust="spacing" textLength="89.4736" x="468.4658" y="820.9025">Complete task</text></g><!--entity C_REOPEN--><g class="entity" data-qualified-name="TODO Manager.Command-line mode.C_REOPEN" data-source-line="29" id="ent0020"><ellipse cx="513.1955" cy="750.9993" fill="#F1F1F1" rx="58.5755" ry="14.8793" style="stroke:#181818;stroke-width:0.5;"/><text fill="#000000" font-family="sans-serif" font-size="14" lengthAdjust="spacing" textLength="78.5957" x="473.8977" y="755.8993">Reopen task</text></g><!--entity C_UPDATE--><g class="entity" data-qualified-name="TODO Manager.Command-line mode.C_UPDATE" data-source-line="30" id="ent0021"><ellipse cx="513.2035" cy="685.9993" fill="#F1F1F1" rx="55.8235" ry="14.8793" style="stroke:#181818;stroke-width:0.5;"/><text fill="#000000" font-family="sans-serif" font-size="14" lengthAdjust="spacing" textLength="74.7037" x="475.8516" y="690.8993">Update task</text></g><!--entity C_DELETE--><g class="entity" data-qualified-name="TODO Manager.Command-line mode.C_DELETE" data-source-line="31" id="ent0022"><ellipse cx="513.1971" cy="620.9993" fill="#F1F1F1" rx="52.5171" ry="14.8793" style="stroke:#181818;stroke-width:0.5;"/><text fill="#000000" font-family="sans-serif" font-size="14" lengthAdjust="spacing" textLength="70.0277" x="478.1832" y="625.8993">Delete task</text></g><!--entity User--><g class="entity" data-qualified-name="User" data-source-line="5" id="ent0002"><ellipse cx="20.7769" cy="565.1" fill="#F1F1F1" rx="8" ry="8" style="stroke:#181818;stroke-width:0.5;"/><path d="M20.7769,573.1 L20.7769,600.1 M7.7769,581.1 L33.7769,581.1 M20.7769,600.1 L7.7769,615.1 M20.7769,600.1 L33.7769,615.1" fill="none" style="stroke:#181818;stroke-width:0.5;"/><text fill="#000000" font-family="sans-serif" font-size="14" lengthAdjust="spacing" textLength="29.5539" x="6" y="629.6059">User</text></g><!--link User to UI--><g class="link" data-entity-1="ent0002" data-entity-2="ent0005" data-link-type="dependency" data-source-line="35" id="lnk23"><path d="M35.81,576.72 C72.35,529.09 166.5377,406.3603 203.3577,358.3703" fill="none" id="User-to-UI" style="stroke:#181818;stroke-width:1;"/><polygon fill="#181818" points="207.01,353.61,198.358,358.3156,203.9664,357.5769,204.7051,363.1853,207.01,353.61" style="stroke:#181818;stroke-width:1;"/></g><!--link User to CLI--><g class="link" data-entity-1="ent0002" data-entity-2="ent0014" data-link-type="dependency" data-source-line="36" id="lnk24"><path d="M35.81,613.14 C71.37,659.14 161.3396,775.4736 200.2596,825.8036" fill="none" id="User-to-CLI" style="stroke:#181818;stroke-width:1;"/><polygon fill="#181818" points="203.93,830.55,201.5887,820.9835,200.8714,826.5947,195.2602,825.8773,203.93,830.55" style="stroke:#181818;stroke-width:1;"/></g><!--link UI to I_ADD--><!--link I_ADD to UI--><g class="link" data-entity-1="ent0006" data-entity-2="ent0005" data-link-type="dependency" data-source-line="57" id="lnk40"><path d="M472.56,512.87 C438.56,514.38 389.31,512.12 352.03,492 C292.62,459.94 252.8028,393.3212 235.1328,359.1012" fill="none" id="I_ADD-to-UI" style="stroke:#181818;stroke-width:1;stroke-dasharray:7,7;"/><polygon fill="#181818" points="232.38,353.77,232.9551,363.6021,234.674,358.2127,240.0634,359.9316,232.38,353.77" style="stroke:#181818;stroke-width:1;"/><text fill="#000000" font-family="sans-serif" font-size="13" lengthAdjust="spacing" textLength="53.4821" x="353.03" y="488.077">&#171;extend&#187;</text></g><!--link UI to I_LIST--><!--link I_LIST to UI--><g class="link" data-entity-1="ent0007" data-entity-2="ent0005" data-link-type="dependency" data-source-line="58" id="lnk41"><path d="M445.85,440.73 C416.35,438.81 381.67,434.01 352.03,423 C309.39,407.16 271.7995,378.1449 247.8795,357.3649" fill="none" id="I_LIST-to-UI" style="stroke:#181818;stroke-width:1;stroke-dasharray:7,7;"/><polygon fill="#181818" points="243.35,353.43,247.521,362.352,247.1246,356.7091,252.7675,356.3127,243.35,353.43" style="stroke:#181818;stroke-width:1;"/><text fill="#000000" font-family="sans-serif" font-size="13" lengthAdjust="spacing" textLength="53.4821" x="353.03" y="419.077">&#171;extend&#187;</text></g><!--link UI to I_SHOW--><!--link I_SHOW to UI--><g class="link" data-entity-1="ent0008" data-entity-2="ent0005" data-link-type="dependency" data-source-line="59" id="lnk42"><path d="M442.63,368.57 C414.43,366.71 381.6,363.97 352.03,360 C329.01,356.91 309.7818,353.505 287.8918,349.095" fill="none" id="I_SHOW-to-UI" style="stroke:#181818;stroke-width:1;stroke-dasharray:7,7;"/><polygon fill="#181818" points="282.01,347.91,290.0428,353.6087,286.9115,348.8975,291.6227,345.7662,282.01,347.91" style="stroke:#181818;stroke-width:1;"/><text fill="#000000" font-family="sans-serif" font-size="13" lengthAdjust="spacing" textLength="53.4821" x="353.03" y="356.077">&#171;extend&#187;</text></g><!--link UI to I_STATUS--><!--link I_STATUS to UI--><g class="link" data-entity-1="ent0009" data-entity-2="ent0005" data-link-type="dependency" data-source-line="60" id="lnk43"><path d="M444.43,309.74 C399.67,314.85 347.0413,320.8693 301.4113,326.0793" fill="none" id="I_STATUS-to-UI" style="stroke:#181818;stroke-width:1;stroke-dasharray:7,7;"/><polygon fill="#181818" points="295.45,326.76,304.8457,329.7132,300.4177,326.1928,303.9381,321.7648,295.45,326.76" style="stroke:#181818;stroke-width:1;"/><text fill="#000000" font-family="sans-serif" font-size="13" lengthAdjust="spacing" textLength="53.4821" x="353.03" y="310.647">&#171;extend&#187;</text></g><!--link UI to I_UPDATE--><!--link I_UPDATE to UI--><g class="link" data-entity-1="ent0010" data-entity-2="ent0005" data-link-type="dependency" data-source-line="61" id="lnk44"><path d="M465.11,241.87 C432.75,248 389.1,257.71 352.03,271 C317.02,283.55 284.3931,300.2528 258.8531,314.4628" fill="none" id="I_UPDATE-to-UI" style="stroke:#181818;stroke-width:1;stroke-dasharray:7,7;"/><polygon fill="#181818" points="253.61,317.38,263.4194,316.4996,257.9793,314.949,259.5299,309.5088,253.61,317.38" style="stroke:#181818;stroke-width:1;"/><text fill="#000000" font-family="sans-serif" font-size="13" lengthAdjust="spacing" textLength="53.4821" x="353.03" y="251.457">&#171;extend&#187;</text></g><!--link UI to I_DELETE--><!--link I_DELETE to UI--><g class="link" data-entity-1="ent0011" data-entity-2="ent0005" data-link-type="dependency" data-source-line="62" id="lnk45"><path d="M463.84,174.3 C430.72,179.51 386.68,189.63 352.03,209 C302.34,236.77 261.9012,283.9865 240.5512,311.7065" fill="none" id="I_DELETE-to-UI" style="stroke:#181818;stroke-width:1;stroke-dasharray:7,7;"/><polygon fill="#181818" points="236.89,316.46,245.5508,311.7705,239.941,312.4987,239.2127,306.889,236.89,316.46" style="stroke:#181818;stroke-width:1;"/><text fill="#000000" font-family="sans-serif" font-size="13" lengthAdjust="spacing" textLength="53.4821" x="353.03" y="183.077">&#171;extend&#187;</text></g><!--link UI to I_QUIT--><!--link I_QUIT to UI--><g class="link" data-entity-1="ent0012" data-entity-2="ent0005" data-link-type="dependency" data-source-line="63" id="lnk46"><path d="M448.83,107.59 C417.42,112.42 380.28,122.22 352.03,142 C287.02,187.5 248.0529,271.687 232.5129,310.647" fill="none" id="I_QUIT-to-UI" style="stroke:#181818;stroke-width:1;stroke-dasharray:7,7;"/><polygon fill="#181818" points="230.29,316.22,237.3397,309.3424,232.1424,311.5758,229.909,306.3785,230.29,316.22" style="stroke:#181818;stroke-width:1;"/><text fill="#000000" font-family="sans-serif" font-size="13" lengthAdjust="spacing" textLength="53.4821" x="353.03" y="113.597">&#171;extend&#187;</text></g><!--link CLI to C_ADD--><!--link C_ADD to CLI--><g class="link" data-entity-1="ent0015" data-entity-2="ent0014" data-link-type="dependency" data-source-line="65" id="lnk47"><path d="M473.07,1092.56 C438.49,1094.57 388.08,1092.4 352.03,1069 C280.44,1022.54 244.8375,926.8159 231.1975,881.4459" fill="none" id="C_ADD-to-CLI" style="stroke:#181818;stroke-width:1;stroke-dasharray:7,7;"/><polygon fill="#181818" points="229.47,875.7,228.2306,885.4706,230.9095,880.4883,235.8918,883.1673,229.47,875.7" style="stroke:#181818;stroke-width:1;"/><text fill="#000000" font-family="sans-serif" font-size="13" lengthAdjust="spacing" textLength="53.4821" x="353.03" y="1065.077">&#171;extend&#187;</text></g><!--link CLI to C_LIST--><!--link C_LIST to CLI--><g class="link" data-entity-1="ent0016" data-entity-2="ent0014" data-link-type="dependency" data-source-line="66" id="lnk48"><path d="M452.91,1026.29 C421.34,1027.53 382.8,1024.7 352.03,1009 C294.15,979.49 255.4707,916.4819 236.9207,880.8519" fill="none" id="C_LIST-to-CLI" style="stroke:#181818;stroke-width:1;stroke-dasharray:7,7;"/><polygon fill="#181818" points="234.15,875.53,234.7582,885.3601,236.459,879.9649,241.8541,881.6657,234.15,875.53" style="stroke:#181818;stroke-width:1;"/><text fill="#000000" font-family="sans-serif" font-size="13" lengthAdjust="spacing" textLength="53.4821" x="353.03" y="1005.077">&#171;extend&#187;</text></g><!--link CLI to C_SHOW--><!--link C_SHOW to CLI--><g class="link" data-entity-1="ent0017" data-entity-2="ent0014" data-link-type="dependency" data-source-line="67" id="lnk49"><path d="M443.26,953.1 C414.41,952.8 380.92,949.74 352.03,940 C311.38,926.3 276.1175,899.9641 251.7775,879.0141" fill="none" id="C_SHOW-to-CLI" style="stroke:#181818;stroke-width:1;stroke-dasharray:7,7;"/><polygon fill="#181818" points="247.23,875.1,251.4418,884.0028,251.0196,878.3618,256.6606,877.9395,247.23,875.1" style="stroke:#181818;stroke-width:1;"/><text fill="#000000" font-family="sans-serif" font-size="13" lengthAdjust="spacing" textLength="53.4821" x="353.03" y="936.077">&#171;extend&#187;</text></g><!--link CLI to C_START--><!--link C_START to CLI--><g class="link" data-entity-1="ent0018" data-entity-2="ent0014" data-link-type="dependency" data-source-line="68" id="lnk50"><path d="M468.22,882.65 C435.96,883.33 391.16,883.16 352.03,879 C332.41,876.92 317.2404,874.4619 297.9504,870.5519" fill="none" id="C_START-to-CLI" style="stroke:#181818;stroke-width:1;stroke-dasharray:7,7;"/><polygon fill="#181818" points="292.07,869.36,300.096,875.0682,296.9703,870.3533,301.6852,867.2276,292.07,869.36" style="stroke:#181818;stroke-width:1;"/><text fill="#000000" font-family="sans-serif" font-size="13" lengthAdjust="spacing" textLength="53.4821" x="353.03" y="875.077">&#171;extend&#187;</text></g><!--link CLI to C_DONE--><!--link C_DONE to CLI--><g class="link" data-entity-1="ent0019" data-entity-2="ent0014" data-link-type="dependency" data-source-line="69" id="lnk51"><path d="M455.98,823.2 C414.38,828.53 362.9214,835.1177 315.5314,841.1877" fill="none" id="C_DONE-to-CLI" style="stroke:#181818;stroke-width:1;stroke-dasharray:7,7;"/><polygon fill="#181818" points="309.58,841.95,319.0153,844.7742,314.5395,841.3148,317.9989,836.839,309.58,841.95" style="stroke:#181818;stroke-width:1;"/><text fill="#000000" font-family="sans-serif" font-size="13" lengthAdjust="spacing" textLength="53.4821" x="353.03" y="826.177">&#171;extend&#187;</text></g><!--link CLI to C_REOPEN--><!--link C_REOPEN to CLI--><g class="link" data-entity-1="ent0020" data-entity-2="ent0014" data-link-type="dependency" data-source-line="70" id="lnk52"><path d="M462.56,758.81 C430.45,764.67 388.07,773.95 352.03,787 C319.08,798.93 289.0239,814.4909 263.7539,828.8809" fill="none" id="C_REOPEN-to-CLI" style="stroke:#181818;stroke-width:1;stroke-dasharray:7,7;"/><polygon fill="#181818" points="258.54,831.85,268.3402,830.8724,262.8849,829.3758,264.3815,823.9205,258.54,831.85" style="stroke:#181818;stroke-width:1;"/><text fill="#000000" font-family="sans-serif" font-size="13" lengthAdjust="spacing" textLength="53.4821" x="353.03" y="767.517">&#171;extend&#187;</text></g><!--link CLI to C_UPDATE--><!--link C_UPDATE to CLI--><g class="link" data-entity-1="ent0021" data-entity-2="ent0014" data-link-type="dependency" data-source-line="71" id="lnk53"><path d="M460.92,691.72 C428.15,697.04 385.64,707.12 352.03,726 C304.12,752.9 265.222,797.6249 243.082,826.2349" fill="none" id="C_UPDATE-to-CLI" style="stroke:#181818;stroke-width:1;stroke-dasharray:7,7;"/><polygon fill="#181818" points="239.41,830.98,248.0815,826.3103,242.47,827.0257,241.7546,821.4143,239.41,830.98" style="stroke:#181818;stroke-width:1;"/><text fill="#000000" font-family="sans-serif" font-size="13" lengthAdjust="spacing" textLength="53.4821" x="353.03" y="700.027">&#171;extend&#187;</text></g><!--link CLI to C_DELETE--><!--link C_DELETE to CLI--><g class="link" data-entity-1="ent0022" data-entity-2="ent0014" data-link-type="dependency" data-source-line="72" id="lnk54"><path d="M461,623.52 C427.44,627.36 384.03,636.69 352.03,659 C288.7,703.16 250.4501,783.8538 233.9701,824.8038" fill="none" id="C_DELETE-to-CLI" style="stroke:#181818;stroke-width:1;stroke-dasharray:7,7;"/><polygon fill="#181818" points="231.73,830.37,238.8009,823.5141,233.5967,825.7315,231.3793,820.5274,231.73,830.37" style="stroke:#181818;stroke-width:1;"/><text fill="#000000" font-family="sans-serif" font-size="13" lengthAdjust="spacing" textLength="53.4821" x="353.03" y="630.827">&#171;extend&#187;</text></g><?plantuml-src ZPFHRfim58Rl_HH7kTdDqjr7LQJ8H1eIRTeIj8jfgZmu3Lw8ZR1XwwO-IQ_s07kAzi5c6vf0YgDm1Vb-7tB-_wV01mrQGiKtkOQCLvXgBWLHMovALh4Tb2pTiWt6-h50i9Y9JO64i5JB2XA55I7xds6oNWKhk6B27Aacy8SGU9i0ar1ehCmvtY3iP8QMWxbgXIbJHc2c0U-BKDGJO0gIa0oLYom3pTJMqV1-4GH37d6buHCyyC9CSqhLIQCmNW-rSIv_EWbag1altfJnvzMNePBcPajijKepNU-bwyKwYO-MAJEciVylavjWiLuELG4ME5G5osXvhBgjkGPMbWLFcSsdazuceTtbQU0obRiT4zcquEA4pLBWLELI0ur2IDiZRgfvFkKrFTzhUhRNTCJhMBDAzzzhFBuxccPMBOVsqVjWTNratXtA4aLVSxTStIolJyT5pugB7k9w8YO7-pt0T3gtZTtVEqi_GCGUPQqXDmrNCyWBreYNVtOqkDbDWOty2FXBer0cOmLDMR56aYI4wTUSPncAR-uxDIFRoeyJv_euSZPxK5lXSTXPCGux1yQXgoYn9Ni7sofva5l2mzmMFkPQue6k6nxMTS93EmDySri7JCR9LIIRrsTGPVNojn6lpxD3e8UewotxNVz040o-k-SE41UhBTp5XQqGpE3oqftFvdFI9kk5rXK_TEbwOBkS1xQxUQ1Dr_DEGlkxMEC6cFQN6Q6zRSQeJTbBRSp-istGFjhpOcpomOntz3y0?></g></svg>